<?xml version="1.0" encoding="utf-8"?>
<!-- Generator: Adobe Illustrator 23.0.4, SVG Export Plug-In . SVG Version: 6.00 Build 0)  -->
<svg version="1.1" id="Layer_1" xmlns="http://www.w3.org/2000/svg" xmlns:xlink="http://www.w3.org/1999/xlink" x="0px" y="0px"
	 viewBox="0 0 163 25.8" style="enable-background:new 0 0 163 25.8;" xml:space="preserve">
<style type="text/css">
	.st0{fill:none;}
	.st1{fill:#FFFFFF;}
</style>
<title>logo1</title>
<g>
	<g id="Layer_1-2">
		<g id="Layer_1-2-2">
			<rect class="st0" width="163" height="25.8"/>
			<g>
				<path class="st1" d="M31.4,14.5c-1.2,1.5-2.7,2.7-4.6,3.2l3.8,6.7H24l-3.3-5.9h-3.2l-1.2,6H10l4.5-22.4H24
					C26.4,2,28.8,2.6,30.7,4c1.6,1.3,2.5,3.2,2.4,5.3C33.1,11.1,32.5,13,31.4,14.5z M25.8,7.8C25,7.3,24.1,7,23.1,7.1h-3.3l-1.4,6.6
					h3.8c1.2,0.1,2.3-0.3,3.3-1c0.8-0.7,1.2-1.8,1.1-2.8C26.7,9,26.4,8.3,25.8,7.8z"/>
				<path class="st1" d="M38.2,23.8c-1.3-0.6-2.4-1.6-3.2-2.8c-0.8-1.3-1.2-2.7-1.1-4.2c-0.1-3.6,1.9-7,5.2-8.7
					c1.7-0.9,3.6-1.3,5.5-1.3c1.7,0,3.3,0.3,4.8,1c1.3,0.6,2.4,1.5,3.2,2.8c0.8,1.2,1.2,2.7,1.1,4.1c0.1,3.7-1.9,7-5.2,8.7
					c-1.7,0.9-3.6,1.3-5.5,1.3C41.4,24.8,39.7,24.5,38.2,23.8z M46.3,18.5c0.8-1,1.2-2.2,1.2-3.5c0-0.9-0.3-1.8-0.9-2.4
					c-0.6-0.6-1.5-1-2.4-0.9c-1.2,0-2.3,0.5-3,1.4c-0.8,1-1.2,2.2-1.2,3.5c0,0.9,0.3,1.8,0.9,2.4c0.6,0.6,1.5,0.9,2.4,0.9
					C44.5,19.9,45.6,19.4,46.3,18.5z"/>
				<path class="st1" d="M77.8,0.8l-4.7,23.7h-5.8l0.3-1.7c-1.3,1.3-3.1,2-5,2c-1.3,0-2.5-0.3-3.6-1c-1.1-0.6-2.1-1.6-2.7-2.7
					c-0.7-1.3-1-2.8-1-4.2c0-1.8,0.4-3.5,1.3-5.1c0.8-1.5,2-2.7,3.4-3.6c1.4-0.9,3.1-1.3,4.7-1.3c2.5,0,4.2,0.8,5.3,2.3l1.7-8.4
					L77.8,0.8z M67.8,18.5c0.8-1,1.2-2.2,1.2-3.5c0.1-0.9-0.3-1.8-0.9-2.4c-0.6-0.6-1.5-0.9-2.4-0.9c-1.2,0-2.3,0.5-3,1.4
					c-0.8,1-1.2,2.2-1.2,3.5c-0.1,0.9,0.3,1.8,0.9,2.4c0.6,0.6,1.5,0.9,2.4,0.9C65.9,19.9,67,19.4,67.8,18.5z"/>
				<path class="st1" d="M81.8,23.8c-1.3-0.6-2.4-1.6-3.2-2.8c-0.8-1.3-1.1-2.7-1.1-4.2c0-1.8,0.5-3.6,1.4-5.1
					c0.9-1.5,2.2-2.8,3.8-3.6c1.7-0.9,3.6-1.3,5.5-1.3c1.7,0,3.3,0.3,4.8,1c1.3,0.6,2.4,1.5,3.2,2.8c0.8,1.2,1.1,2.7,1.1,4.1
					c0.1,3.7-1.9,7-5.2,8.7c-1.7,0.9-3.6,1.4-5.5,1.3C85,24.8,83.3,24.5,81.8,23.8z M90,18.5c0.8-1,1.2-2.2,1.2-3.5
					c0-0.9-0.3-1.8-0.9-2.4c-0.6-0.6-1.5-0.9-2.4-0.9c-1.2,0-2.3,0.5-3,1.4c-0.8,1-1.2,2.2-1.2,3.5c0,0.9,0.3,1.8,0.9,2.4
					c0.6,0.6,1.5,0.9,2.4,0.9C88.2,19.9,89.3,19.4,90,18.5z"/>
			</g>
			<g>
				<path class="st1" d="M107.4,1.3h-2.1V7h-1.1V1.3h-2V0.4h5.2L107.4,1.3z"/>
				<path class="st1" d="M109.8,0.4l1.9,5.1l1.9-5.1h1.5V7h-1.1V4.8l0.1-2.9L112.1,7h-0.8l-2-5.1l0.1,2.9V7h-1.1V0.4H109.8z"/>
			</g>
		</g>
	</g>
</g>
</svg>
