<svg xmlns="http://www.w3.org/2000/svg" viewBox="0 0 163 25.8"><defs><style>.cls-1{fill:none;}.cls-2{isolation:isolate;}</style></defs><title>logo_1</title><g id="Layer_2" data-name="Layer 2"><g id="Layer_1-2" data-name="Layer 1"><g id="Layer_1-2-2" data-name="Layer 1-2"><rect class="cls-1" width="163" height="25.8"/><g class="cls-2"><path d="M24.44,17.23a9.27,9.27,0,0,1-4.57,3.25l3.8,6.72H17.05l-3.33-5.95h-3.2L9.34,27.2H3L7.48,4.8h9.57a10.43,10.43,0,0,1,6.66,1.89,6.36,6.36,0,0,1,2.36,5.25A8.68,8.68,0,0,1,24.44,17.23Zm-5.69-6.75a4.3,4.3,0,0,0-2.6-.69H12.83l-1.35,6.56h3.78a4.85,4.85,0,0,0,3.26-1,3.51,3.51,0,0,0,1.15-2.82A2.42,2.42,0,0,0,18.75,10.48Z" transform="translate(0 -2.7)"/><path d="M31.23,26.51a7.28,7.28,0,0,1-3.17-2.77,7.64,7.64,0,0,1-1.12-4.16,9.61,9.61,0,0,1,5.18-8.7,11.28,11.28,0,0,1,5.47-1.31,11,11,0,0,1,4.8,1,7.43,7.43,0,0,1,3.17,2.75,7.61,7.61,0,0,1,1.12,4.15,9.65,9.65,0,0,1-5.17,8.73A11.25,11.25,0,0,1,36,27.49,11,11,0,0,1,31.23,26.51Zm8.12-5.26a5.18,5.18,0,0,0,1.16-3.49,3.33,3.33,0,0,0-.87-2.43,3.15,3.15,0,0,0-2.4-.9,3.72,3.72,0,0,0-3,1.35,5.18,5.18,0,0,0-1.16,3.51A3.29,3.29,0,0,0,34,21.71a3.18,3.18,0,0,0,2.4.88A3.74,3.74,0,0,0,39.35,21.25Z" transform="translate(0 -2.7)"/><path d="M70.84,3.46,66.11,27.2H60.35l.35-1.7a7,7,0,0,1-5,2,7.23,7.23,0,0,1-3.6-.95,7.09,7.09,0,0,1-2.7-2.73,8.41,8.41,0,0,1-1-4.23,10.39,10.39,0,0,1,1.26-5.1,9.38,9.38,0,0,1,3.44-3.6,9,9,0,0,1,4.74-1.31c2.47,0,4.23.76,5.28,2.3l1.69-8.41ZM60.76,21.25a5.17,5.17,0,0,0,1.15-3.49,3.33,3.33,0,0,0-.86-2.43,3.18,3.18,0,0,0-2.4-.9,3.74,3.74,0,0,0-3,1.35,5.22,5.22,0,0,0-1.15,3.51,3.29,3.29,0,0,0,.87,2.42,3.18,3.18,0,0,0,2.4.88A3.75,3.75,0,0,0,60.76,21.25Z" transform="translate(0 -2.7)"/><path d="M74.84,26.51a7.39,7.39,0,0,1-3.17-2.77,7.73,7.73,0,0,1-1.12-4.16,9.68,9.68,0,0,1,1.38-5.12,9.81,9.81,0,0,1,3.81-3.58,11.26,11.26,0,0,1,5.47-1.31,11.09,11.09,0,0,1,4.8,1,7.48,7.48,0,0,1,3.17,2.75,7.69,7.69,0,0,1,1.12,4.15,9.7,9.7,0,0,1-5.17,8.73,11.26,11.26,0,0,1-5.49,1.32A11.09,11.09,0,0,1,74.84,26.51ZM83,21.25a5.17,5.17,0,0,0,1.15-3.49,3.37,3.37,0,0,0-.86-2.43,3.18,3.18,0,0,0-2.4-.9,3.74,3.74,0,0,0-3,1.35,5.17,5.17,0,0,0-1.15,3.51,3.33,3.33,0,0,0,.86,2.42,3.21,3.21,0,0,0,2.4.88A3.76,3.76,0,0,0,83,21.25Z" transform="translate(0 -2.7)"/></g><g class="cls-2"><path d="M100.42,4H98.36V9.66H97.22V4h-2V3.06h5.24Z" transform="translate(0 -2.7)"/><path d="M102.77,3.06l1.9,5.06,1.9-5.06h1.48v6.6h-1.14V7.48l.11-2.9-1.94,5.08h-.82l-2-5.08.11,2.9V9.66h-1.14V3.06Z" transform="translate(0 -2.7)"/></g></g></g></g></svg>